<!-- Generated by graphviz version 2.38.0 (20140413.2041)
 -->
<!-- Title: %3 Pages: 1 -->
<svg width="399pt" height="78pt"
 viewBox="0.00 0.00 399.00 78.00" xmlns="http://www.w3.org/2000/svg" xmlns:xlink="http://www.w3.org/1999/xlink">
<g id="graph0" class="graph" transform="scale(1 1) rotate(0) translate(4 74)">
<title>%3</title>
<!-- start -->
<g id="node1" class="node"><title>start</title>
</g>
<!-- q0 -->
<g id="node3" class="node"><title>q0</title>
<ellipse fill="none" stroke="black" cx="56" cy="-18.5" rx="18" ry="18"/>
<text text-anchor="middle" x="56" y="-14.8" font-family="Times,serif" font-size="14.00">q0</text>
</g>
<!-- start&#45;&gt;q0 -->
<g id="edge1" class="edge"><title>start&#45;&gt;q0</title>
<path fill="none" stroke="black" d="M18.6816,-18.5C21.5653,-18.5 24.6106,-18.5 27.6617,-18.5"/>
<polygon fill="black" stroke="black" points="27.8306,-22.0001 37.8306,-18.5 27.8306,-15.0001 27.8306,-22.0001"/>
</g>
<!-- q4 -->
<g id="node2" class="node"><title>q4</title>
<ellipse fill="none" stroke="black" cx="372.5" cy="-18.5" rx="14.5" ry="14.5"/>
<ellipse fill="none" stroke="black" cx="372.5" cy="-18.5" rx="18.5" ry="18.5"/>
<text text-anchor="middle" x="372.5" y="-14.8" font-family="Times,serif" font-size="14.00">q4</text>
</g>
<!-- q4&#45;&gt;q4 -->
<g id="edge7" class="edge"><title>q4&#45;&gt;q4</title>
<path fill="none" stroke="black" d="M365.412,-35.7739C363.965,-45.7309 366.328,-55 372.5,-55 376.454,-55 378.844,-51.196 379.672,-45.844"/>
<polygon fill="black" stroke="black" points="383.171,-45.7445 379.588,-35.7739 376.171,-45.8027 383.171,-45.7445"/>
<text text-anchor="middle" x="372.5" y="-58.8" font-family="Times,serif" font-size="14.00">1</text>
</g>
<!-- q1 -->
<g id="node4" class="node"><title>q1</title>
<ellipse fill="none" stroke="black" cx="135" cy="-18.5" rx="18" ry="18"/>
<text text-anchor="middle" x="135" y="-14.8" font-family="Times,serif" font-size="14.00">q1</text>
</g>
<!-- q0&#45;&gt;q1 -->
<g id="edge2" class="edge"><title>q0&#45;&gt;q1</title>
<path fill="none" stroke="black" d="M74.0888,-18.5C83.659,-18.5 95.8172,-18.5 106.677,-18.5"/>
<polygon fill="black" stroke="black" points="106.959,-22.0001 116.959,-18.5 106.959,-15.0001 106.959,-22.0001"/>
<text text-anchor="middle" x="95.5" y="-22.3" font-family="Times,serif" font-size="14.00">1</text>
</g>
<!-- q2 -->
<g id="node5" class="node"><title>q2</title>
<ellipse fill="none" stroke="black" cx="214" cy="-18.5" rx="18" ry="18"/>
<text text-anchor="middle" x="214" y="-14.8" font-family="Times,serif" font-size="14.00">q2</text>
</g>
<!-- q1&#45;&gt;q2 -->
<g id="edge3" class="edge"><title>q1&#45;&gt;q2</title>
<path fill="none" stroke="black" d="M153.089,-18.5C162.659,-18.5 174.817,-18.5 185.677,-18.5"/>
<polygon fill="black" stroke="black" points="185.959,-22.0001 195.959,-18.5 185.959,-15.0001 185.959,-22.0001"/>
<text text-anchor="middle" x="174.5" y="-22.3" font-family="Times,serif" font-size="14.00">0</text>
</g>
<!-- q3 -->
<g id="node6" class="node"><title>q3</title>
<ellipse fill="none" stroke="black" cx="293" cy="-18.5" rx="18" ry="18"/>
<text text-anchor="middle" x="293" y="-14.8" font-family="Times,serif" font-size="14.00">q3</text>
</g>
<!-- q2&#45;&gt;q3 -->
<g id="edge4" class="edge"><title>q2&#45;&gt;q3</title>
<path fill="none" stroke="black" d="M232.089,-18.5C241.659,-18.5 253.817,-18.5 264.677,-18.5"/>
<polygon fill="black" stroke="black" points="264.959,-22.0001 274.959,-18.5 264.959,-15.0001 264.959,-22.0001"/>
<text text-anchor="middle" x="253.5" y="-22.3" font-family="Times,serif" font-size="14.00">0</text>
</g>
<!-- q3&#45;&gt;q4 -->
<g id="edge6" class="edge"><title>q3&#45;&gt;q4</title>
<path fill="none" stroke="black" d="M311.2,-18.5C320.698,-18.5 332.73,-18.5 343.543,-18.5"/>
<polygon fill="black" stroke="black" points="343.811,-22.0001 353.811,-18.5 343.811,-15.0001 343.811,-22.0001"/>
<text text-anchor="middle" x="332.5" y="-22.3" font-family="Times,serif" font-size="14.00">1</text>
</g>
<!-- q3&#45;&gt;q3 -->
<g id="edge5" class="edge"><title>q3&#45;&gt;q3</title>
<path fill="none" stroke="black" d="M286.266,-35.5373C284.892,-45.3579 287.137,-54.5 293,-54.5 296.665,-54.5 298.916,-50.9289 299.753,-45.8529"/>
<polygon fill="black" stroke="black" points="303.252,-45.5307 299.734,-35.5373 296.252,-45.5439 303.252,-45.5307"/>
<text text-anchor="middle" x="293" y="-58.3" font-family="Times,serif" font-size="14.00">0</text>
</g>
</g>
</svg>
