<!-- Generated by graphviz version 2.38.0 (20140413.2041)
 -->
<!-- Title: %3 Pages: 1 -->
<svg width="395pt" height="322pt"
 viewBox="0.00 0.00 394.57 322.07" xmlns="http://www.w3.org/2000/svg" xmlns:xlink="http://www.w3.org/1999/xlink">
<g id="graph0" class="graph" transform="scale(1 1) rotate(0) translate(4 318.066)">
<title>%3</title>
<!-- start -->
<g id="node1" class="node"><title>start</title>
</g>
<!-- q000 -->
<g id="node6" class="node"><title>q000</title>
<ellipse fill="none" stroke="black" cx="90.5" cy="-157.283" rx="18" ry="18"/>
<text text-anchor="middle" x="90.5" y="-153.583" font-family="Times,serif" font-size="14.00">000</text>
</g>
<!-- start&#45;&gt;q000 -->
<g id="edge1" class="edge"><title>start&#45;&gt;q000</title>
<path fill="none" stroke="black" d="M1.07472,-157.283C5.71729,-157.283 37.5418,-157.283 61.9178,-157.283"/>
<polygon fill="black" stroke="black" points="62.138,-160.783 72.1379,-157.283 62.1379,-153.783 62.138,-160.783"/>
</g>
<!-- q100 -->
<g id="node2" class="node"><title>q100</title>
<ellipse fill="none" stroke="black" cx="131.149" cy="-59.1486" rx="14.5" ry="14.5"/>
<ellipse fill="none" stroke="black" cx="131.149" cy="-59.1486" rx="18.5" ry="18.5"/>
<text text-anchor="middle" x="131.149" y="-55.4486" font-family="Times,serif" font-size="14.00">100</text>
</g>
<!-- q100&#45;&gt;q000 -->
<g id="edge10" class="edge"><title>q100&#45;&gt;q000</title>
<path fill="none" stroke="black" d="M124.068,-76.2424C117.831,-91.2992 108.648,-113.471 101.462,-130.819"/>
<polygon fill="black" stroke="black" points="98.0926,-129.807 97.4993,-140.385 104.56,-132.486 98.0926,-129.807"/>
<text text-anchor="middle" x="109.265" y="-107.331" font-family="Times,serif" font-size="14.00">0</text>
</g>
<!-- q001 -->
<g id="node7" class="node"><title>q001</title>
<ellipse fill="none" stroke="black" cx="131.149" cy="-255.418" rx="18" ry="18"/>
<text text-anchor="middle" x="131.149" y="-251.718" font-family="Times,serif" font-size="14.00">001</text>
</g>
<!-- q100&#45;&gt;q001 -->
<g id="edge11" class="edge"><title>q100&#45;&gt;q001</title>
<path fill="none" stroke="black" d="M131.149,-77.9677C131.149,-112.582 131.149,-186.517 131.149,-227.176"/>
<polygon fill="black" stroke="black" points="127.649,-227.227 131.149,-237.227 134.649,-227.227 127.649,-227.227"/>
<text text-anchor="middle" x="134.649" y="-141.372" font-family="Times,serif" font-size="14.00">1</text>
</g>
<!-- q101 -->
<g id="node3" class="node"><title>q101</title>
<ellipse fill="none" stroke="black" cx="327.418" cy="-255.418" rx="14.5" ry="14.5"/>
<ellipse fill="none" stroke="black" cx="327.418" cy="-255.418" rx="18.5" ry="18.5"/>
<text text-anchor="middle" x="327.418" y="-251.718" font-family="Times,serif" font-size="14.00">101</text>
</g>
<!-- q010 -->
<g id="node8" class="node"><title>q010</title>
<ellipse fill="none" stroke="black" cx="229.283" cy="-296.066" rx="18" ry="18"/>
<text text-anchor="middle" x="229.283" y="-292.366" font-family="Times,serif" font-size="14.00">010</text>
</g>
<!-- q101&#45;&gt;q010 -->
<g id="edge12" class="edge"><title>q101&#45;&gt;q010</title>
<path fill="none" stroke="black" d="M308.774,-257.493C292.845,-262.222 269.894,-271.439 252.729,-279.837"/>
<polygon fill="black" stroke="black" points="250.676,-276.958 243.388,-284.648 253.881,-283.181 250.676,-276.958"/>
<text text-anchor="middle" x="277.252" y="-257.465" font-family="Times,serif" font-size="14.00">0</text>
</g>
<!-- q011 -->
<g id="node9" class="node"><title>q011</title>
<ellipse fill="none" stroke="black" cx="368.066" cy="-157.283" rx="18" ry="18"/>
<text text-anchor="middle" x="368.066" y="-153.583" font-family="Times,serif" font-size="14.00">011</text>
</g>
<!-- q101&#45;&gt;q011 -->
<g id="edge13" class="edge"><title>q101&#45;&gt;q011</title>
<path fill="none" stroke="black" d="M334.498,-238.324C340.735,-223.267 349.919,-201.096 357.104,-183.748"/>
<polygon fill="black" stroke="black" points="360.474,-184.759 361.067,-174.181 354.006,-182.08 360.474,-184.759"/>
<text text-anchor="middle" x="342.301" y="-214.836" font-family="Times,serif" font-size="14.00">1</text>
</g>
<!-- q110 -->
<g id="node4" class="node"><title>q110</title>
<ellipse fill="none" stroke="black" cx="229.283" cy="-18.5" rx="14.5" ry="14.5"/>
<ellipse fill="none" stroke="black" cx="229.283" cy="-18.5" rx="18.5" ry="18.5"/>
<text text-anchor="middle" x="229.283" y="-14.8" font-family="Times,serif" font-size="14.00">110</text>
</g>
<!-- q110&#45;&gt;q100 -->
<g id="edge14" class="edge"><title>q110&#45;&gt;q100</title>
<path fill="none" stroke="black" d="M212.189,-25.5805C197.224,-31.7792 175.231,-40.8891 157.931,-48.055"/>
<polygon fill="black" stroke="black" points="156.275,-44.9525 148.376,-52.0129 158.954,-51.4196 156.275,-44.9525"/>
<text text-anchor="middle" x="181.56" y="-40.6177" font-family="Times,serif" font-size="14.00">0</text>
</g>
<!-- q110&#45;&gt;q101 -->
<g id="edge15" class="edge"><title>q110&#45;&gt;q101</title>
<path fill="none" stroke="black" d="M236.499,-35.9211C253.519,-77.0105 296.253,-180.179 316.479,-229.01"/>
<polygon fill="black" stroke="black" points="313.263,-230.391 320.323,-238.29 319.73,-227.712 313.263,-230.391"/>
<text text-anchor="middle" x="272.989" y="-136.265" font-family="Times,serif" font-size="14.00">1</text>
</g>
<!-- q111 -->
<g id="node5" class="node"><title>q111</title>
<ellipse fill="none" stroke="black" cx="327.418" cy="-59.1486" rx="14.5" ry="14.5"/>
<ellipse fill="none" stroke="black" cx="327.418" cy="-59.1486" rx="18.5" ry="18.5"/>
<text text-anchor="middle" x="327.418" y="-55.4486" font-family="Times,serif" font-size="14.00">111</text>
</g>
<!-- q111&#45;&gt;q110 -->
<g id="edge16" class="edge"><title>q111&#45;&gt;q110</title>
<path fill="none" stroke="black" d="M310.324,-52.0682C295.359,-45.8695 273.366,-36.7596 256.065,-29.5936"/>
<polygon fill="black" stroke="black" points="257.088,-26.229 246.51,-25.6357 254.41,-32.6962 257.088,-26.229"/>
<text text-anchor="middle" x="279.695" y="-44.6309" font-family="Times,serif" font-size="14.00">0</text>
</g>
<!-- q111&#45;&gt;q111 -->
<g id="edge17" class="edge"><title>q111&#45;&gt;q111</title>
<path fill="none" stroke="black" d="M345.069,-65.5756C354.882,-66.7753 363.918,-64.633 363.918,-59.1486 363.918,-55.7209 360.388,-53.5986 355.345,-52.7819"/>
<polygon fill="black" stroke="black" points="355.09,-49.2804 345.069,-52.7216 355.049,-56.2803 355.09,-49.2804"/>
<text text-anchor="middle" x="367.418" y="-55.4486" font-family="Times,serif" font-size="14.00">1</text>
</g>
<!-- q000&#45;&gt;q000 -->
<g id="edge2" class="edge"><title>q000&#45;&gt;q000</title>
<path fill="none" stroke="black" d="M107.396,-163.611C117.495,-165.017 127,-162.908 127,-157.283 127,-153.68 123.099,-151.519 117.64,-150.801"/>
<polygon fill="black" stroke="black" points="117.342,-147.305 107.396,-150.955 117.447,-154.304 117.342,-147.305"/>
<text text-anchor="middle" x="130.5" y="-153.583" font-family="Times,serif" font-size="14.00">0</text>
</g>
<!-- q000&#45;&gt;q001 -->
<g id="edge3" class="edge"><title>q000&#45;&gt;q001</title>
<path fill="none" stroke="black" d="M97.3955,-173.93C103.644,-189.015 112.957,-211.5 120.219,-229.032"/>
<polygon fill="black" stroke="black" points="117.159,-230.789 124.219,-238.689 123.626,-228.111 117.159,-230.789"/>
<text text-anchor="middle" x="105.307" y="-205.281" font-family="Times,serif" font-size="14.00">1</text>
</g>
<!-- q001&#45;&gt;q010 -->
<g id="edge4" class="edge"><title>q001&#45;&gt;q010</title>
<path fill="none" stroke="black" d="M147.796,-262.313C162.881,-268.562 185.366,-277.875 202.898,-285.137"/>
<polygon fill="black" stroke="black" points="201.976,-288.544 212.554,-289.137 204.655,-282.076 201.976,-288.544"/>
<text text-anchor="middle" x="171.847" y="-277.525" font-family="Times,serif" font-size="14.00">0</text>
</g>
<!-- q001&#45;&gt;q011 -->
<g id="edge5" class="edge"><title>q001&#45;&gt;q011</title>
<path fill="none" stroke="black" d="M147.808,-248.517C188.505,-231.66 293.214,-188.288 342.145,-168.02"/>
<polygon fill="black" stroke="black" points="343.526,-171.237 351.425,-164.176 340.847,-164.769 343.526,-171.237"/>
<text text-anchor="middle" x="241.477" y="-212.068" font-family="Times,serif" font-size="14.00">1</text>
</g>
<!-- q010&#45;&gt;q100 -->
<g id="edge6" class="edge"><title>q010&#45;&gt;q100</title>
<path fill="none" stroke="black" d="M222.382,-279.407C205.607,-238.907 162.573,-135.013 142.181,-85.7843"/>
<polygon fill="black" stroke="black" points="145.366,-84.326 138.305,-76.4266 138.899,-87.0048 145.366,-84.326"/>
<text text-anchor="middle" x="178.782" y="-186.395" font-family="Times,serif" font-size="14.00">0</text>
</g>
<!-- q010&#45;&gt;q101 -->
<g id="edge7" class="edge"><title>q010&#45;&gt;q101</title>
<path fill="none" stroke="black" d="M247.465,-294.127C263.392,-289.446 286.589,-280.147 303.915,-271.674"/>
<polygon fill="black" stroke="black" points="305.555,-274.766 312.853,-267.086 302.358,-268.539 305.555,-274.766"/>
<text text-anchor="middle" x="272.19" y="-286.7" font-family="Times,serif" font-size="14.00">1</text>
</g>
<!-- q011&#45;&gt;q110 -->
<g id="edge8" class="edge"><title>q011&#45;&gt;q110</title>
<path fill="none" stroke="black" d="M355.259,-144.475C331.112,-120.329 278.68,-67.8973 249.65,-38.8667"/>
<polygon fill="black" stroke="black" points="252.011,-36.2777 242.465,-31.6815 247.061,-41.2275 252.011,-36.2777"/>
<text text-anchor="middle" x="298.954" y="-95.4711" font-family="Times,serif" font-size="14.00">0</text>
</g>
<!-- q011&#45;&gt;q111 -->
<g id="edge9" class="edge"><title>q011&#45;&gt;q111</title>
<path fill="none" stroke="black" d="M361.171,-140.636C354.998,-125.734 345.834,-103.61 338.612,-86.1738"/>
<polygon fill="black" stroke="black" points="341.682,-84.4388 334.621,-76.5395 335.214,-87.1177 341.682,-84.4388"/>
<text text-anchor="middle" x="346.391" y="-117.205" font-family="Times,serif" font-size="14.00">1</text>
</g>
</g>
</svg>
