<!-- Generated by graphviz version 2.38.0 (20140413.2041)
 -->
<!-- Title: %3 Pages: 1 -->
<svg width="342pt" height="78pt"
 viewBox="0.00 0.00 342.00 77.50" xmlns="http://www.w3.org/2000/svg" xmlns:xlink="http://www.w3.org/1999/xlink">
<g id="graph0" class="graph" transform="scale(1 1) rotate(0) translate(4 73.5)">
<title>%3</title>
<!-- start -->
<g id="node1" class="node"><title>start</title>
</g>
<!-- q1 -->
<g id="node3" class="node"><title>q1</title>
<ellipse fill="none" stroke="black" cx="56" cy="-18.5" rx="18" ry="18"/>
<text text-anchor="middle" x="56" y="-14.8" font-family="Times,serif" font-size="14.00">...</text>
</g>
<!-- start&#45;&gt;q1 -->
<g id="edge1" class="edge"><title>start&#45;&gt;q1</title>
<path fill="none" stroke="black" d="M1.15491,-18.5C2.67247,-18.5 15.0966,-18.5 27.6277,-18.5"/>
<polygon fill="black" stroke="black" points="27.9419,-22.0001 37.9419,-18.5 27.9418,-15.0001 27.9419,-22.0001"/>
</g>
<!-- q4 -->
<g id="node2" class="node"><title>q4</title>
<ellipse fill="none" stroke="black" cx="315.5" cy="-18.5" rx="14.5" ry="14.5"/>
<ellipse fill="none" stroke="black" cx="315.5" cy="-18.5" rx="18.5" ry="18.5"/>
<text text-anchor="middle" x="315.5" y="-14.8" font-family="Times,serif" font-size="14.00">1..</text>
</g>
<!-- q1&#45;&gt;q1 -->
<g id="edge2" class="edge"><title>q1&#45;&gt;q1</title>
<path fill="none" stroke="black" d="M49.6208,-35.5373C48.3189,-45.3579 50.4453,-54.5 56,-54.5 59.4717,-54.5 61.6042,-50.9289 62.3975,-45.8529"/>
<polygon fill="black" stroke="black" points="65.8971,-45.531 62.3792,-35.5373 58.8971,-45.5435 65.8971,-45.531"/>
<text text-anchor="middle" x="56" y="-58.3" font-family="Times,serif" font-size="14.00">0,1</text>
</g>
<!-- q2 -->
<g id="node4" class="node"><title>q2</title>
<ellipse fill="none" stroke="black" cx="135" cy="-18.5" rx="18" ry="18"/>
<text text-anchor="middle" x="135" y="-14.8" font-family="Times,serif" font-size="14.00">..1</text>
</g>
<!-- q1&#45;&gt;q2 -->
<g id="edge3" class="edge"><title>q1&#45;&gt;q2</title>
<path fill="none" stroke="black" d="M74.0888,-18.5C83.659,-18.5 95.8172,-18.5 106.677,-18.5"/>
<polygon fill="black" stroke="black" points="106.959,-22.0001 116.959,-18.5 106.959,-15.0001 106.959,-22.0001"/>
<text text-anchor="middle" x="95.5" y="-22.3" font-family="Times,serif" font-size="14.00">1</text>
</g>
<!-- q3 -->
<g id="node5" class="node"><title>q3</title>
<ellipse fill="none" stroke="black" cx="225" cy="-18.5" rx="18" ry="18"/>
<text text-anchor="middle" x="225" y="-14.8" font-family="Times,serif" font-size="14.00">.1.</text>
</g>
<!-- q2&#45;&gt;q3 -->
<g id="edge4" class="edge"><title>q2&#45;&gt;q3</title>
<path fill="none" stroke="black" d="M153.386,-18.5C165.76,-18.5 182.631,-18.5 196.78,-18.5"/>
<polygon fill="black" stroke="black" points="196.95,-22.0001 206.95,-18.5 196.95,-15.0001 196.95,-22.0001"/>
<text text-anchor="middle" x="180" y="-22.3" font-family="Times,serif" font-size="14.00">0,1</text>
</g>
<!-- q3&#45;&gt;q4 -->
<g id="edge5" class="edge"><title>q3&#45;&gt;q4</title>
<path fill="none" stroke="black" d="M243.064,-18.5C255.392,-18.5 272.316,-18.5 286.597,-18.5"/>
<polygon fill="black" stroke="black" points="286.883,-22.0001 296.883,-18.5 286.883,-15.0001 286.883,-22.0001"/>
<text text-anchor="middle" x="270" y="-22.3" font-family="Times,serif" font-size="14.00">0,1</text>
</g>
</g>
</svg>
